<mxfile host="app.diagrams.net" modified="2022-11-30T05:38:28.893Z" agent="5.0 (Windows NT 10.0; Win64; x64) AppleWebKit/537.36 (KHTML, like Gecko) Chrome/107.0.0.0 Safari/537.36" etag="18ZTRodWk6O89dHGvIxP" version="20.5.3" type="github">
  <diagram id="yEtTrOtoCAEPUutCkQJL" name="Page-1">
    <mxGraphModel dx="648" dy="536" grid="1" gridSize="10" guides="1" tooltips="1" connect="1" arrows="1" fold="1" page="1" pageScale="1" pageWidth="850" pageHeight="1100" math="0" shadow="0">
      <root>
        <mxCell id="0" />
        <mxCell id="1" parent="0" />
        <mxCell id="kdnqP8Vli1AkSitdOtRD-4" value="" style="edgeStyle=orthogonalEdgeStyle;rounded=0;orthogonalLoop=1;jettySize=auto;html=1;" edge="1" parent="1" source="kdnqP8Vli1AkSitdOtRD-1" target="kdnqP8Vli1AkSitdOtRD-3">
          <mxGeometry relative="1" as="geometry" />
        </mxCell>
        <mxCell id="kdnqP8Vli1AkSitdOtRD-1" value="_c" style="rounded=0;whiteSpace=wrap;html=1;" vertex="1" parent="1">
          <mxGeometry x="45" y="70" width="60" height="20" as="geometry" />
        </mxCell>
        <mxCell id="kdnqP8Vli1AkSitdOtRD-6" value="" style="edgeStyle=orthogonalEdgeStyle;rounded=0;orthogonalLoop=1;jettySize=auto;html=1;" edge="1" parent="1" source="kdnqP8Vli1AkSitdOtRD-3" target="kdnqP8Vli1AkSitdOtRD-5">
          <mxGeometry relative="1" as="geometry" />
        </mxCell>
        <mxCell id="kdnqP8Vli1AkSitdOtRD-3" value="createElement$1" style="rounded=0;whiteSpace=wrap;html=1;" vertex="1" parent="1">
          <mxGeometry x="150" y="70" width="110" height="20" as="geometry" />
        </mxCell>
        <mxCell id="kdnqP8Vli1AkSitdOtRD-18" value="" style="edgeStyle=orthogonalEdgeStyle;rounded=0;orthogonalLoop=1;jettySize=auto;html=1;" edge="1" parent="1" source="kdnqP8Vli1AkSitdOtRD-5" target="kdnqP8Vli1AkSitdOtRD-17">
          <mxGeometry relative="1" as="geometry" />
        </mxCell>
        <mxCell id="kdnqP8Vli1AkSitdOtRD-5" value="_createElement" style="rounded=0;whiteSpace=wrap;html=1;" vertex="1" parent="1">
          <mxGeometry x="290" y="70" width="110" height="20" as="geometry" />
        </mxCell>
        <mxCell id="kdnqP8Vli1AkSitdOtRD-9" style="edgeStyle=orthogonalEdgeStyle;rounded=0;orthogonalLoop=1;jettySize=auto;html=1;entryX=0.201;entryY=1.1;entryDx=0;entryDy=0;entryPerimeter=0;" edge="1" parent="1" source="kdnqP8Vli1AkSitdOtRD-8" target="kdnqP8Vli1AkSitdOtRD-3">
          <mxGeometry relative="1" as="geometry" />
        </mxCell>
        <mxCell id="kdnqP8Vli1AkSitdOtRD-8" value="h" style="rounded=0;whiteSpace=wrap;html=1;" vertex="1" parent="1">
          <mxGeometry x="45" y="115" width="60" height="20" as="geometry" />
        </mxCell>
        <mxCell id="kdnqP8Vli1AkSitdOtRD-37" value="" style="edgeStyle=orthogonalEdgeStyle;rounded=0;orthogonalLoop=1;jettySize=auto;html=1;" edge="1" parent="1" source="kdnqP8Vli1AkSitdOtRD-10" target="kdnqP8Vli1AkSitdOtRD-36">
          <mxGeometry relative="1" as="geometry" />
        </mxCell>
        <mxCell id="kdnqP8Vli1AkSitdOtRD-10" value="mountComponent" style="rounded=0;whiteSpace=wrap;html=1;" vertex="1" parent="1">
          <mxGeometry x="45" y="280" width="100" height="20" as="geometry" />
        </mxCell>
        <mxCell id="kdnqP8Vli1AkSitdOtRD-14" value="" style="edgeStyle=orthogonalEdgeStyle;rounded=0;orthogonalLoop=1;jettySize=auto;html=1;" edge="1" parent="1" source="kdnqP8Vli1AkSitdOtRD-11" target="kdnqP8Vli1AkSitdOtRD-13">
          <mxGeometry relative="1" as="geometry" />
        </mxCell>
        <mxCell id="kdnqP8Vli1AkSitdOtRD-11" value="updateComponent" style="rounded=0;whiteSpace=wrap;html=1;" vertex="1" parent="1">
          <mxGeometry x="300" y="280" width="110" height="20" as="geometry" />
        </mxCell>
        <mxCell id="kdnqP8Vli1AkSitdOtRD-34" value="" style="edgeStyle=orthogonalEdgeStyle;rounded=0;orthogonalLoop=1;jettySize=auto;html=1;" edge="1" parent="1" source="kdnqP8Vli1AkSitdOtRD-13" target="kdnqP8Vli1AkSitdOtRD-33">
          <mxGeometry relative="1" as="geometry" />
        </mxCell>
        <mxCell id="kdnqP8Vli1AkSitdOtRD-13" value="vm._updata()" style="rounded=0;whiteSpace=wrap;html=1;" vertex="1" parent="1">
          <mxGeometry x="450" y="280" width="110" height="20" as="geometry" />
        </mxCell>
        <mxCell id="kdnqP8Vli1AkSitdOtRD-16" style="edgeStyle=orthogonalEdgeStyle;rounded=0;orthogonalLoop=1;jettySize=auto;html=1;" edge="1" parent="1" source="kdnqP8Vli1AkSitdOtRD-15" target="kdnqP8Vli1AkSitdOtRD-3">
          <mxGeometry relative="1" as="geometry">
            <mxPoint x="173" y="60" as="targetPoint" />
          </mxGeometry>
        </mxCell>
        <mxCell id="kdnqP8Vli1AkSitdOtRD-15" value="$createElement" style="rounded=0;whiteSpace=wrap;html=1;" vertex="1" parent="1">
          <mxGeometry x="30" y="30" width="90" height="20" as="geometry" />
        </mxCell>
        <mxCell id="kdnqP8Vli1AkSitdOtRD-23" value="" style="edgeStyle=orthogonalEdgeStyle;rounded=0;orthogonalLoop=1;jettySize=auto;html=1;" edge="1" parent="1" source="kdnqP8Vli1AkSitdOtRD-17" target="kdnqP8Vli1AkSitdOtRD-22">
          <mxGeometry relative="1" as="geometry" />
        </mxCell>
        <mxCell id="kdnqP8Vli1AkSitdOtRD-17" value="createComponent" style="rounded=0;whiteSpace=wrap;html=1;" vertex="1" parent="1">
          <mxGeometry x="510" y="70" width="110" height="20" as="geometry" />
        </mxCell>
        <mxCell id="kdnqP8Vli1AkSitdOtRD-21" value="if tag not string" style="text;html=1;align=center;verticalAlign=middle;resizable=0;points=[];autosize=1;strokeColor=none;fillColor=none;" vertex="1" parent="1">
          <mxGeometry x="400" y="85" width="100" height="30" as="geometry" />
        </mxCell>
        <mxCell id="kdnqP8Vli1AkSitdOtRD-22" value="Vue.extend" style="rounded=0;whiteSpace=wrap;html=1;" vertex="1" parent="1">
          <mxGeometry x="700" y="70" width="110" height="20" as="geometry" />
        </mxCell>
        <mxCell id="kdnqP8Vli1AkSitdOtRD-26" value="" style="edgeStyle=orthogonalEdgeStyle;rounded=0;orthogonalLoop=1;jettySize=auto;html=1;" edge="1" parent="1" source="kdnqP8Vli1AkSitdOtRD-24" target="kdnqP8Vli1AkSitdOtRD-25">
          <mxGeometry relative="1" as="geometry" />
        </mxCell>
        <mxCell id="kdnqP8Vli1AkSitdOtRD-35" style="edgeStyle=orthogonalEdgeStyle;rounded=0;orthogonalLoop=1;jettySize=auto;html=1;entryX=0.439;entryY=0.152;entryDx=0;entryDy=0;entryPerimeter=0;dashed=1;" edge="1" parent="1" source="kdnqP8Vli1AkSitdOtRD-24" target="kdnqP8Vli1AkSitdOtRD-13">
          <mxGeometry relative="1" as="geometry">
            <Array as="points">
              <mxPoint x="107" y="240" />
              <mxPoint x="498" y="240" />
            </Array>
          </mxGeometry>
        </mxCell>
        <mxCell id="kdnqP8Vli1AkSitdOtRD-24" value="vue.prototype._render" style="rounded=0;whiteSpace=wrap;html=1;" vertex="1" parent="1">
          <mxGeometry x="45" y="190" width="125" height="20" as="geometry" />
        </mxCell>
        <mxCell id="kdnqP8Vli1AkSitdOtRD-27" style="edgeStyle=orthogonalEdgeStyle;rounded=0;orthogonalLoop=1;jettySize=auto;html=1;" edge="1" parent="1" source="kdnqP8Vli1AkSitdOtRD-25" target="kdnqP8Vli1AkSitdOtRD-8">
          <mxGeometry relative="1" as="geometry">
            <Array as="points">
              <mxPoint x="313" y="160" />
              <mxPoint x="75" y="160" />
            </Array>
          </mxGeometry>
        </mxCell>
        <mxCell id="kdnqP8Vli1AkSitdOtRD-25" value="options.render" style="rounded=0;whiteSpace=wrap;html=1;" vertex="1" parent="1">
          <mxGeometry x="250" y="190" width="125" height="20" as="geometry" />
        </mxCell>
        <mxCell id="kdnqP8Vli1AkSitdOtRD-33" value="patch" style="rounded=0;whiteSpace=wrap;html=1;" vertex="1" parent="1">
          <mxGeometry x="600" y="280" width="110" height="20" as="geometry" />
        </mxCell>
        <mxCell id="kdnqP8Vli1AkSitdOtRD-38" style="edgeStyle=orthogonalEdgeStyle;rounded=0;orthogonalLoop=1;jettySize=auto;html=1;entryX=0;entryY=0.5;entryDx=0;entryDy=0;" edge="1" parent="1" source="kdnqP8Vli1AkSitdOtRD-36" target="kdnqP8Vli1AkSitdOtRD-11">
          <mxGeometry relative="1" as="geometry">
            <Array as="points" />
          </mxGeometry>
        </mxCell>
        <mxCell id="kdnqP8Vli1AkSitdOtRD-36" value="new Watcher" style="rounded=0;whiteSpace=wrap;html=1;" vertex="1" parent="1">
          <mxGeometry x="170" y="280" width="100" height="20" as="geometry" />
        </mxCell>
      </root>
    </mxGraphModel>
  </diagram>
</mxfile>
